M48
; DRILL file KiCad 10.0.6 date 2026-09-16T01:54:04
; FORMAT={-:-/ absolute / metric / decimal}
; #@! TF.CreationDate,2026-09-16T01:54:04+05:30
; #@! TF.GenerationSoftware,Kicad,Pcbnew,10.0.6
; #@! TF.FileFunction,Plated,1,2,PTH
FMAT,2
METRIC
; #@! TA.AperFunction,Plated,PTH,ViaDrill
T1C0.300
; #@! TA.AperFunction,Plated,PTH,ComponentDrill
T2C0.500
; #@! TA.AperFunction,Plated,PTH,ComponentDrill
T3C1.000
; #@! TA.AperFunction,Plated,PTH,ComponentDrill
T4C2.200
%
G90
G05
T1
X109.0Y-65.0
X126.0Y-61.0
X129.0Y-69.0
T2
X111.0Y-106.0
X111.0Y-111.0
T3
X158.0Y-64.0
X158.0Y-66.54
X158.0Y-69.08
X158.0Y-74.46
X158.0Y-77.0
X158.0Y-79.54
X158.0Y-84.46
X158.0Y-87.0
X158.0Y-89.54
T4
X109.0Y-58.0
X109.0Y-117.0
X158.0Y-58.0
X158.0Y-117.0
T3
G00X116.29Y-111.0
M15
G01X116.29Y-109.0
M16
G05
G00X120.29Y-105.3
M15
G01X118.29Y-105.3
M16
G05
G00X122.29Y-111.0
M15
G01X122.29Y-109.0
M16
G05
M30
