%TF.GenerationSoftware,KiCad,Pcbnew,10.0.6*%
%TF.CreationDate,2026-09-16T01:53:29+05:30*%
%TF.ProjectId,assessment3,61737365-7373-46d6-956e-74332e6b6963,rev?*%
%TF.SameCoordinates,Original*%
%TF.FileFunction,Soldermask,Top*%
%TF.FilePolarity,Negative*%
%FSLAX46Y46*%
G04 Gerber Fmt 4.6, Leading zero omitted, Abs format (unit mm)*
G04 Created by KiCad (PCBNEW 10.0.6) date 2026-09-16 01:53:29*
%MOMM*%
%LPD*%
G01*
G04 APERTURE LIST*
G04 Aperture macros list*
%AMRoundRect*
0 Rectangle with rounded corners*
0 $1 Rounding radius*
0 $2 $3 $4 $5 $6 $7 $8 $9 X,Y pos of 4 corners*
0 Add a 4 corners polygon primitive as box body*
4,1,4,$2,$3,$4,$5,$6,$7,$8,$9,$2,$3,0*
0 Add four circle primitives for the rounded corners*
1,1,$1+$1,$2,$3*
1,1,$1+$1,$4,$5*
1,1,$1+$1,$6,$7*
1,1,$1+$1,$8,$9*
0 Add four rect primitives between the rounded corners*
20,1,$1+$1,$2,$3,$4,$5,0*
20,1,$1+$1,$4,$5,$6,$7,0*
20,1,$1+$1,$6,$7,$8,$9,0*
20,1,$1+$1,$8,$9,$2,$3,0*%
G04 Aperture macros list end*
%ADD10RoundRect,0.250000X-2.050000X-0.300000X2.050000X-0.300000X2.050000X0.300000X-2.050000X0.300000X0*%
%ADD11RoundRect,0.250002X-4.449998X-5.149998X4.449998X-5.149998X4.449998X5.149998X-4.449998X5.149998X0*%
%ADD12RoundRect,0.250000X1.000000X-1.400000X1.000000X1.400000X-1.000000X1.400000X-1.000000X-1.400000X0*%
%ADD13C,3.800000*%
%ADD14C,2.600000*%
%ADD15C,1.700000*%
%ADD16R,1.700000X1.700000*%
%ADD17R,3.500000X3.500000*%
%ADD18RoundRect,0.750000X0.750000X1.000000X-0.750000X1.000000X-0.750000X-1.000000X0.750000X-1.000000X0*%
%ADD19RoundRect,0.875000X0.875000X0.875000X-0.875000X0.875000X-0.875000X-0.875000X0.875000X-0.875000X0*%
%ADD20RoundRect,0.225000X0.225000X0.375000X-0.225000X0.375000X-0.225000X-0.375000X0.225000X-0.375000X0*%
%ADD21RoundRect,0.135000X-0.135000X-0.185000X0.135000X-0.185000X0.135000X0.185000X-0.135000X0.185000X0*%
%ADD22RoundRect,0.250000X-0.325000X-0.650000X0.325000X-0.650000X0.325000X0.650000X-0.325000X0.650000X0*%
%ADD23RoundRect,0.250000X-0.262500X-0.450000X0.262500X-0.450000X0.262500X0.450000X-0.262500X0.450000X0*%
%ADD24RoundRect,0.150000X-0.825000X-0.150000X0.825000X-0.150000X0.825000X0.150000X-0.825000X0.150000X0*%
%ADD25R,2.290000X3.000000*%
%ADD26R,0.850000X0.850000*%
%ADD27RoundRect,0.250000X0.900000X-1.000000X0.900000X1.000000X-0.900000X1.000000X-0.900000X-1.000000X0*%
%ADD28RoundRect,0.250000X-0.450000X0.262500X-0.450000X-0.262500X0.450000X-0.262500X0.450000X0.262500X0*%
%ADD29RoundRect,0.140000X-0.140000X-0.170000X0.140000X-0.170000X0.140000X0.170000X-0.140000X0.170000X0*%
%ADD30RoundRect,0.250000X-0.250000X-0.475000X0.250000X-0.475000X0.250000X0.475000X-0.250000X0.475000X0*%
%ADD31R,5.400000X2.900000*%
%ADD32RoundRect,0.250000X-1.100000X0.325000X-1.100000X-0.325000X1.100000X-0.325000X1.100000X0.325000X0*%
%ADD33RoundRect,0.250000X-0.375000X-1.075000X0.375000X-1.075000X0.375000X1.075000X-0.375000X1.075000X0*%
%ADD34RoundRect,0.250000X0.325000X0.650000X-0.325000X0.650000X-0.325000X-0.650000X0.325000X-0.650000X0*%
%ADD35RoundRect,0.250000X-1.500000X-1.000000X1.500000X-1.000000X1.500000X1.000000X-1.500000X1.000000X0*%
%ADD36RoundRect,0.250000X0.625000X-0.312500X0.625000X0.312500X-0.625000X0.312500X-0.625000X-0.312500X0*%
%ADD37RoundRect,0.250000X-1.750000X-1.000000X1.750000X-1.000000X1.750000X1.000000X-1.750000X1.000000X0*%
G04 APERTURE END LIST*
D10*
%TO.C,U1*%
X122225000Y-96175000D03*
X122225000Y-94475000D03*
D11*
X131375000Y-92775000D03*
D10*
X122225000Y-92775000D03*
X122225000Y-91075000D03*
X122225000Y-89375000D03*
%TD*%
D12*
%TO.C,D1*%
X145800000Y-59000000D03*
X139000000Y-59000000D03*
%TD*%
D13*
%TO.C,REF\u002A\u002A*%
X109000000Y-58000000D03*
D14*
X109000000Y-58000000D03*
%TD*%
D15*
%TO.C,J2*%
X158000000Y-69080000D03*
X158000000Y-66540000D03*
D16*
X158000000Y-64000000D03*
%TD*%
D15*
%TO.C,J3*%
X158000000Y-79540000D03*
X158000000Y-77000000D03*
D16*
X158000000Y-74460000D03*
%TD*%
D15*
%TO.C,J4*%
X158000000Y-89540000D03*
X158000000Y-87000000D03*
D16*
X158000000Y-84460000D03*
%TD*%
D17*
%TO.C,J1*%
X116290000Y-110000000D03*
D18*
X122290000Y-110000000D03*
D19*
X119290000Y-105300000D03*
%TD*%
D20*
%TO.C,D4*%
X110350000Y-96000000D03*
X113650000Y-96000000D03*
%TD*%
D21*
%TO.C,R5*%
X120980000Y-74000000D03*
X122000000Y-74000000D03*
%TD*%
D22*
%TO.C,C8*%
X125525000Y-69000000D03*
X128475000Y-69000000D03*
%TD*%
D23*
%TO.C,R4*%
X122912500Y-70000000D03*
X121087500Y-70000000D03*
%TD*%
%TO.C,R2*%
X115000000Y-66000000D03*
X113175000Y-66000000D03*
%TD*%
D24*
%TO.C,U2*%
X121000000Y-59730000D03*
X121000000Y-61000000D03*
X121000000Y-62270000D03*
X121000000Y-63540000D03*
X125950000Y-63540000D03*
X125950000Y-62270000D03*
X125950000Y-61000000D03*
X125950000Y-59730000D03*
D25*
X123475000Y-61635000D03*
%TD*%
D26*
%TO.C,S1*%
X111000000Y-111000000D03*
%TD*%
D27*
%TO.C,D2*%
X133000000Y-82150000D03*
X133000000Y-77850000D03*
%TD*%
D28*
%TO.C,R3*%
X135000000Y-63087500D03*
X135000000Y-64912500D03*
%TD*%
D14*
%TO.C,REF\u002A\u002A*%
X158000000Y-117000000D03*
D13*
X158000000Y-117000000D03*
%TD*%
D29*
%TO.C,C3*%
X108520000Y-75000000D03*
X109480000Y-75000000D03*
%TD*%
D30*
%TO.C,C4*%
X131050000Y-63000000D03*
X132950000Y-63000000D03*
%TD*%
D14*
%TO.C,REF\u002A\u002A*%
X158000000Y-58000000D03*
D13*
X158000000Y-58000000D03*
%TD*%
D31*
%TO.C,L2*%
X154000000Y-104950000D03*
X154000000Y-95050000D03*
%TD*%
D29*
%TO.C,C7*%
X116000000Y-57000000D03*
X116960000Y-57000000D03*
%TD*%
%TO.C,C5*%
X132040000Y-66000000D03*
X133000000Y-66000000D03*
%TD*%
D32*
%TO.C,C2*%
X109000000Y-68525000D03*
X109000000Y-71475000D03*
%TD*%
D14*
%TO.C,REF\u002A\u002A*%
X109000000Y-117000000D03*
D13*
X109000000Y-117000000D03*
%TD*%
D32*
%TO.C,C1*%
X109000000Y-62525000D03*
X109000000Y-65475000D03*
%TD*%
D33*
%TO.C,L1*%
X130600000Y-59000000D03*
X133400000Y-59000000D03*
%TD*%
D29*
%TO.C,C6*%
X114040000Y-70000000D03*
X115000000Y-70000000D03*
%TD*%
D34*
%TO.C,C9*%
X129000000Y-74000000D03*
X126050000Y-74000000D03*
%TD*%
D26*
%TO.C,S2*%
X111000000Y-106000000D03*
%TD*%
D35*
%TO.C,C11*%
X144750000Y-80000000D03*
X151250000Y-80000000D03*
%TD*%
D36*
%TO.C,F1*%
X108000000Y-101462500D03*
X108000000Y-98537500D03*
%TD*%
D37*
%TO.C,C10*%
X113000000Y-81000000D03*
X121000000Y-81000000D03*
%TD*%
D23*
%TO.C,R1*%
X116000000Y-63000000D03*
X114175000Y-63000000D03*
%TD*%
M02*
