%TF.GenerationSoftware,KiCad,Pcbnew,10.0.6*%
%TF.CreationDate,2026-09-16T01:53:29+05:30*%
%TF.ProjectId,assessment3,61737365-7373-46d6-956e-74332e6b6963,rev?*%
%TF.SameCoordinates,Original*%
%TF.FileFunction,Legend,Top*%
%TF.FilePolarity,Positive*%
%FSLAX46Y46*%
G04 Gerber Fmt 4.6, Leading zero omitted, Abs format (unit mm)*
G04 Created by KiCad (PCBNEW 10.0.6) date 2026-09-16 01:53:29*
%MOMM*%
%LPD*%
G01*
G04 APERTURE LIST*
%ADD10C,0.150000*%
%ADD11C,0.120000*%
G04 APERTURE END LIST*
D10*
X129113095Y-85579819D02*
X129113095Y-86389342D01*
X129113095Y-86389342D02*
X129160714Y-86484580D01*
X129160714Y-86484580D02*
X129208333Y-86532200D01*
X129208333Y-86532200D02*
X129303571Y-86579819D01*
X129303571Y-86579819D02*
X129494047Y-86579819D01*
X129494047Y-86579819D02*
X129589285Y-86532200D01*
X129589285Y-86532200D02*
X129636904Y-86484580D01*
X129636904Y-86484580D02*
X129684523Y-86389342D01*
X129684523Y-86389342D02*
X129684523Y-85579819D01*
X130684523Y-86579819D02*
X130113095Y-86579819D01*
X130398809Y-86579819D02*
X130398809Y-85579819D01*
X130398809Y-85579819D02*
X130303571Y-85722676D01*
X130303571Y-85722676D02*
X130208333Y-85817914D01*
X130208333Y-85817914D02*
X130113095Y-85865533D01*
X141661905Y-55354819D02*
X141661905Y-54354819D01*
X141661905Y-54354819D02*
X141900000Y-54354819D01*
X141900000Y-54354819D02*
X142042857Y-54402438D01*
X142042857Y-54402438D02*
X142138095Y-54497676D01*
X142138095Y-54497676D02*
X142185714Y-54592914D01*
X142185714Y-54592914D02*
X142233333Y-54783390D01*
X142233333Y-54783390D02*
X142233333Y-54926247D01*
X142233333Y-54926247D02*
X142185714Y-55116723D01*
X142185714Y-55116723D02*
X142138095Y-55211961D01*
X142138095Y-55211961D02*
X142042857Y-55307200D01*
X142042857Y-55307200D02*
X141900000Y-55354819D01*
X141900000Y-55354819D02*
X141661905Y-55354819D01*
X143185714Y-55354819D02*
X142614286Y-55354819D01*
X142900000Y-55354819D02*
X142900000Y-54354819D01*
X142900000Y-54354819D02*
X142804762Y-54497676D01*
X142804762Y-54497676D02*
X142709524Y-54592914D01*
X142709524Y-54592914D02*
X142614286Y-54640533D01*
X107666666Y-55604819D02*
X107333333Y-55128628D01*
X107095238Y-55604819D02*
X107095238Y-54604819D01*
X107095238Y-54604819D02*
X107476190Y-54604819D01*
X107476190Y-54604819D02*
X107571428Y-54652438D01*
X107571428Y-54652438D02*
X107619047Y-54700057D01*
X107619047Y-54700057D02*
X107666666Y-54795295D01*
X107666666Y-54795295D02*
X107666666Y-54938152D01*
X107666666Y-54938152D02*
X107619047Y-55033390D01*
X107619047Y-55033390D02*
X107571428Y-55081009D01*
X107571428Y-55081009D02*
X107476190Y-55128628D01*
X107476190Y-55128628D02*
X107095238Y-55128628D01*
X108095238Y-55081009D02*
X108428571Y-55081009D01*
X108571428Y-55604819D02*
X108095238Y-55604819D01*
X108095238Y-55604819D02*
X108095238Y-54604819D01*
X108095238Y-54604819D02*
X108571428Y-54604819D01*
X109333333Y-55081009D02*
X109000000Y-55081009D01*
X109000000Y-55604819D02*
X109000000Y-54604819D01*
X109000000Y-54604819D02*
X109476190Y-54604819D01*
X110000000Y-54604819D02*
X110000000Y-54842914D01*
X109761905Y-54747676D02*
X110000000Y-54842914D01*
X110000000Y-54842914D02*
X110238095Y-54747676D01*
X109857143Y-55033390D02*
X110000000Y-54842914D01*
X110000000Y-54842914D02*
X110142857Y-55033390D01*
X110761905Y-54604819D02*
X110761905Y-54842914D01*
X110523810Y-54747676D02*
X110761905Y-54842914D01*
X110761905Y-54842914D02*
X111000000Y-54747676D01*
X110619048Y-55033390D02*
X110761905Y-54842914D01*
X110761905Y-54842914D02*
X110904762Y-55033390D01*
X157666666Y-61074819D02*
X157666666Y-61789104D01*
X157666666Y-61789104D02*
X157619047Y-61931961D01*
X157619047Y-61931961D02*
X157523809Y-62027200D01*
X157523809Y-62027200D02*
X157380952Y-62074819D01*
X157380952Y-62074819D02*
X157285714Y-62074819D01*
X158095238Y-61170057D02*
X158142857Y-61122438D01*
X158142857Y-61122438D02*
X158238095Y-61074819D01*
X158238095Y-61074819D02*
X158476190Y-61074819D01*
X158476190Y-61074819D02*
X158571428Y-61122438D01*
X158571428Y-61122438D02*
X158619047Y-61170057D01*
X158619047Y-61170057D02*
X158666666Y-61265295D01*
X158666666Y-61265295D02*
X158666666Y-61360533D01*
X158666666Y-61360533D02*
X158619047Y-61503390D01*
X158619047Y-61503390D02*
X158047619Y-62074819D01*
X158047619Y-62074819D02*
X158666666Y-62074819D01*
X157666666Y-71534819D02*
X157666666Y-72249104D01*
X157666666Y-72249104D02*
X157619047Y-72391961D01*
X157619047Y-72391961D02*
X157523809Y-72487200D01*
X157523809Y-72487200D02*
X157380952Y-72534819D01*
X157380952Y-72534819D02*
X157285714Y-72534819D01*
X158047619Y-71534819D02*
X158666666Y-71534819D01*
X158666666Y-71534819D02*
X158333333Y-71915771D01*
X158333333Y-71915771D02*
X158476190Y-71915771D01*
X158476190Y-71915771D02*
X158571428Y-71963390D01*
X158571428Y-71963390D02*
X158619047Y-72011009D01*
X158619047Y-72011009D02*
X158666666Y-72106247D01*
X158666666Y-72106247D02*
X158666666Y-72344342D01*
X158666666Y-72344342D02*
X158619047Y-72439580D01*
X158619047Y-72439580D02*
X158571428Y-72487200D01*
X158571428Y-72487200D02*
X158476190Y-72534819D01*
X158476190Y-72534819D02*
X158190476Y-72534819D01*
X158190476Y-72534819D02*
X158095238Y-72487200D01*
X158095238Y-72487200D02*
X158047619Y-72439580D01*
X157666666Y-81534819D02*
X157666666Y-82249104D01*
X157666666Y-82249104D02*
X157619047Y-82391961D01*
X157619047Y-82391961D02*
X157523809Y-82487200D01*
X157523809Y-82487200D02*
X157380952Y-82534819D01*
X157380952Y-82534819D02*
X157285714Y-82534819D01*
X158571428Y-81868152D02*
X158571428Y-82534819D01*
X158333333Y-81487200D02*
X158095238Y-82201485D01*
X158095238Y-82201485D02*
X158714285Y-82201485D01*
X124406666Y-103704819D02*
X124406666Y-104419104D01*
X124406666Y-104419104D02*
X124359047Y-104561961D01*
X124359047Y-104561961D02*
X124263809Y-104657200D01*
X124263809Y-104657200D02*
X124120952Y-104704819D01*
X124120952Y-104704819D02*
X124025714Y-104704819D01*
X125406666Y-104704819D02*
X124835238Y-104704819D01*
X125120952Y-104704819D02*
X125120952Y-103704819D01*
X125120952Y-103704819D02*
X125025714Y-103847676D01*
X125025714Y-103847676D02*
X124930476Y-103942914D01*
X124930476Y-103942914D02*
X124835238Y-103990533D01*
X111261905Y-98454819D02*
X111261905Y-97454819D01*
X111261905Y-97454819D02*
X111500000Y-97454819D01*
X111500000Y-97454819D02*
X111642857Y-97502438D01*
X111642857Y-97502438D02*
X111738095Y-97597676D01*
X111738095Y-97597676D02*
X111785714Y-97692914D01*
X111785714Y-97692914D02*
X111833333Y-97883390D01*
X111833333Y-97883390D02*
X111833333Y-98026247D01*
X111833333Y-98026247D02*
X111785714Y-98216723D01*
X111785714Y-98216723D02*
X111738095Y-98311961D01*
X111738095Y-98311961D02*
X111642857Y-98407200D01*
X111642857Y-98407200D02*
X111500000Y-98454819D01*
X111500000Y-98454819D02*
X111261905Y-98454819D01*
X112690476Y-97788152D02*
X112690476Y-98454819D01*
X112452381Y-97407200D02*
X112214286Y-98121485D01*
X112214286Y-98121485D02*
X112833333Y-98121485D01*
X121323333Y-73284819D02*
X120990000Y-72808628D01*
X120751905Y-73284819D02*
X120751905Y-72284819D01*
X120751905Y-72284819D02*
X121132857Y-72284819D01*
X121132857Y-72284819D02*
X121228095Y-72332438D01*
X121228095Y-72332438D02*
X121275714Y-72380057D01*
X121275714Y-72380057D02*
X121323333Y-72475295D01*
X121323333Y-72475295D02*
X121323333Y-72618152D01*
X121323333Y-72618152D02*
X121275714Y-72713390D01*
X121275714Y-72713390D02*
X121228095Y-72761009D01*
X121228095Y-72761009D02*
X121132857Y-72808628D01*
X121132857Y-72808628D02*
X120751905Y-72808628D01*
X122228095Y-72284819D02*
X121751905Y-72284819D01*
X121751905Y-72284819D02*
X121704286Y-72761009D01*
X121704286Y-72761009D02*
X121751905Y-72713390D01*
X121751905Y-72713390D02*
X121847143Y-72665771D01*
X121847143Y-72665771D02*
X122085238Y-72665771D01*
X122085238Y-72665771D02*
X122180476Y-72713390D01*
X122180476Y-72713390D02*
X122228095Y-72761009D01*
X122228095Y-72761009D02*
X122275714Y-72856247D01*
X122275714Y-72856247D02*
X122275714Y-73094342D01*
X122275714Y-73094342D02*
X122228095Y-73189580D01*
X122228095Y-73189580D02*
X122180476Y-73237200D01*
X122180476Y-73237200D02*
X122085238Y-73284819D01*
X122085238Y-73284819D02*
X121847143Y-73284819D01*
X121847143Y-73284819D02*
X121751905Y-73237200D01*
X121751905Y-73237200D02*
X121704286Y-73189580D01*
X126833333Y-67509580D02*
X126785714Y-67557200D01*
X126785714Y-67557200D02*
X126642857Y-67604819D01*
X126642857Y-67604819D02*
X126547619Y-67604819D01*
X126547619Y-67604819D02*
X126404762Y-67557200D01*
X126404762Y-67557200D02*
X126309524Y-67461961D01*
X126309524Y-67461961D02*
X126261905Y-67366723D01*
X126261905Y-67366723D02*
X126214286Y-67176247D01*
X126214286Y-67176247D02*
X126214286Y-67033390D01*
X126214286Y-67033390D02*
X126261905Y-66842914D01*
X126261905Y-66842914D02*
X126309524Y-66747676D01*
X126309524Y-66747676D02*
X126404762Y-66652438D01*
X126404762Y-66652438D02*
X126547619Y-66604819D01*
X126547619Y-66604819D02*
X126642857Y-66604819D01*
X126642857Y-66604819D02*
X126785714Y-66652438D01*
X126785714Y-66652438D02*
X126833333Y-66700057D01*
X127404762Y-67033390D02*
X127309524Y-66985771D01*
X127309524Y-66985771D02*
X127261905Y-66938152D01*
X127261905Y-66938152D02*
X127214286Y-66842914D01*
X127214286Y-66842914D02*
X127214286Y-66795295D01*
X127214286Y-66795295D02*
X127261905Y-66700057D01*
X127261905Y-66700057D02*
X127309524Y-66652438D01*
X127309524Y-66652438D02*
X127404762Y-66604819D01*
X127404762Y-66604819D02*
X127595238Y-66604819D01*
X127595238Y-66604819D02*
X127690476Y-66652438D01*
X127690476Y-66652438D02*
X127738095Y-66700057D01*
X127738095Y-66700057D02*
X127785714Y-66795295D01*
X127785714Y-66795295D02*
X127785714Y-66842914D01*
X127785714Y-66842914D02*
X127738095Y-66938152D01*
X127738095Y-66938152D02*
X127690476Y-66985771D01*
X127690476Y-66985771D02*
X127595238Y-67033390D01*
X127595238Y-67033390D02*
X127404762Y-67033390D01*
X127404762Y-67033390D02*
X127309524Y-67081009D01*
X127309524Y-67081009D02*
X127261905Y-67128628D01*
X127261905Y-67128628D02*
X127214286Y-67223866D01*
X127214286Y-67223866D02*
X127214286Y-67414342D01*
X127214286Y-67414342D02*
X127261905Y-67509580D01*
X127261905Y-67509580D02*
X127309524Y-67557200D01*
X127309524Y-67557200D02*
X127404762Y-67604819D01*
X127404762Y-67604819D02*
X127595238Y-67604819D01*
X127595238Y-67604819D02*
X127690476Y-67557200D01*
X127690476Y-67557200D02*
X127738095Y-67509580D01*
X127738095Y-67509580D02*
X127785714Y-67414342D01*
X127785714Y-67414342D02*
X127785714Y-67223866D01*
X127785714Y-67223866D02*
X127738095Y-67128628D01*
X127738095Y-67128628D02*
X127690476Y-67081009D01*
X127690476Y-67081009D02*
X127595238Y-67033390D01*
X121833333Y-68804819D02*
X121500000Y-68328628D01*
X121261905Y-68804819D02*
X121261905Y-67804819D01*
X121261905Y-67804819D02*
X121642857Y-67804819D01*
X121642857Y-67804819D02*
X121738095Y-67852438D01*
X121738095Y-67852438D02*
X121785714Y-67900057D01*
X121785714Y-67900057D02*
X121833333Y-67995295D01*
X121833333Y-67995295D02*
X121833333Y-68138152D01*
X121833333Y-68138152D02*
X121785714Y-68233390D01*
X121785714Y-68233390D02*
X121738095Y-68281009D01*
X121738095Y-68281009D02*
X121642857Y-68328628D01*
X121642857Y-68328628D02*
X121261905Y-68328628D01*
X122690476Y-68138152D02*
X122690476Y-68804819D01*
X122452381Y-67757200D02*
X122214286Y-68471485D01*
X122214286Y-68471485D02*
X122833333Y-68471485D01*
X113920833Y-64804819D02*
X113587500Y-64328628D01*
X113349405Y-64804819D02*
X113349405Y-63804819D01*
X113349405Y-63804819D02*
X113730357Y-63804819D01*
X113730357Y-63804819D02*
X113825595Y-63852438D01*
X113825595Y-63852438D02*
X113873214Y-63900057D01*
X113873214Y-63900057D02*
X113920833Y-63995295D01*
X113920833Y-63995295D02*
X113920833Y-64138152D01*
X113920833Y-64138152D02*
X113873214Y-64233390D01*
X113873214Y-64233390D02*
X113825595Y-64281009D01*
X113825595Y-64281009D02*
X113730357Y-64328628D01*
X113730357Y-64328628D02*
X113349405Y-64328628D01*
X114301786Y-63900057D02*
X114349405Y-63852438D01*
X114349405Y-63852438D02*
X114444643Y-63804819D01*
X114444643Y-63804819D02*
X114682738Y-63804819D01*
X114682738Y-63804819D02*
X114777976Y-63852438D01*
X114777976Y-63852438D02*
X114825595Y-63900057D01*
X114825595Y-63900057D02*
X114873214Y-63995295D01*
X114873214Y-63995295D02*
X114873214Y-64090533D01*
X114873214Y-64090533D02*
X114825595Y-64233390D01*
X114825595Y-64233390D02*
X114254167Y-64804819D01*
X114254167Y-64804819D02*
X114873214Y-64804819D01*
X122713095Y-57689819D02*
X122713095Y-58499342D01*
X122713095Y-58499342D02*
X122760714Y-58594580D01*
X122760714Y-58594580D02*
X122808333Y-58642200D01*
X122808333Y-58642200D02*
X122903571Y-58689819D01*
X122903571Y-58689819D02*
X123094047Y-58689819D01*
X123094047Y-58689819D02*
X123189285Y-58642200D01*
X123189285Y-58642200D02*
X123236904Y-58594580D01*
X123236904Y-58594580D02*
X123284523Y-58499342D01*
X123284523Y-58499342D02*
X123284523Y-57689819D01*
X123713095Y-57785057D02*
X123760714Y-57737438D01*
X123760714Y-57737438D02*
X123855952Y-57689819D01*
X123855952Y-57689819D02*
X124094047Y-57689819D01*
X124094047Y-57689819D02*
X124189285Y-57737438D01*
X124189285Y-57737438D02*
X124236904Y-57785057D01*
X124236904Y-57785057D02*
X124284523Y-57880295D01*
X124284523Y-57880295D02*
X124284523Y-57975533D01*
X124284523Y-57975533D02*
X124236904Y-58118390D01*
X124236904Y-58118390D02*
X123665476Y-58689819D01*
X123665476Y-58689819D02*
X124284523Y-58689819D01*
X108863095Y-112907200D02*
X109005952Y-112954819D01*
X109005952Y-112954819D02*
X109244047Y-112954819D01*
X109244047Y-112954819D02*
X109339285Y-112907200D01*
X109339285Y-112907200D02*
X109386904Y-112859580D01*
X109386904Y-112859580D02*
X109434523Y-112764342D01*
X109434523Y-112764342D02*
X109434523Y-112669104D01*
X109434523Y-112669104D02*
X109386904Y-112573866D01*
X109386904Y-112573866D02*
X109339285Y-112526247D01*
X109339285Y-112526247D02*
X109244047Y-112478628D01*
X109244047Y-112478628D02*
X109053571Y-112431009D01*
X109053571Y-112431009D02*
X108958333Y-112383390D01*
X108958333Y-112383390D02*
X108910714Y-112335771D01*
X108910714Y-112335771D02*
X108863095Y-112240533D01*
X108863095Y-112240533D02*
X108863095Y-112145295D01*
X108863095Y-112145295D02*
X108910714Y-112050057D01*
X108910714Y-112050057D02*
X108958333Y-112002438D01*
X108958333Y-112002438D02*
X109053571Y-111954819D01*
X109053571Y-111954819D02*
X109291666Y-111954819D01*
X109291666Y-111954819D02*
X109434523Y-112002438D01*
X110386904Y-112954819D02*
X109815476Y-112954819D01*
X110101190Y-112954819D02*
X110101190Y-111954819D01*
X110101190Y-111954819D02*
X110005952Y-112097676D01*
X110005952Y-112097676D02*
X109910714Y-112192914D01*
X109910714Y-112192914D02*
X109815476Y-112240533D01*
X130454819Y-80738094D02*
X129454819Y-80738094D01*
X129454819Y-80738094D02*
X129454819Y-80499999D01*
X129454819Y-80499999D02*
X129502438Y-80357142D01*
X129502438Y-80357142D02*
X129597676Y-80261904D01*
X129597676Y-80261904D02*
X129692914Y-80214285D01*
X129692914Y-80214285D02*
X129883390Y-80166666D01*
X129883390Y-80166666D02*
X130026247Y-80166666D01*
X130026247Y-80166666D02*
X130216723Y-80214285D01*
X130216723Y-80214285D02*
X130311961Y-80261904D01*
X130311961Y-80261904D02*
X130407200Y-80357142D01*
X130407200Y-80357142D02*
X130454819Y-80499999D01*
X130454819Y-80499999D02*
X130454819Y-80738094D01*
X129550057Y-79785713D02*
X129502438Y-79738094D01*
X129502438Y-79738094D02*
X129454819Y-79642856D01*
X129454819Y-79642856D02*
X129454819Y-79404761D01*
X129454819Y-79404761D02*
X129502438Y-79309523D01*
X129502438Y-79309523D02*
X129550057Y-79261904D01*
X129550057Y-79261904D02*
X129645295Y-79214285D01*
X129645295Y-79214285D02*
X129740533Y-79214285D01*
X129740533Y-79214285D02*
X129883390Y-79261904D01*
X129883390Y-79261904D02*
X130454819Y-79833332D01*
X130454819Y-79833332D02*
X130454819Y-79214285D01*
X137104819Y-64166666D02*
X136628628Y-64499999D01*
X137104819Y-64738094D02*
X136104819Y-64738094D01*
X136104819Y-64738094D02*
X136104819Y-64357142D01*
X136104819Y-64357142D02*
X136152438Y-64261904D01*
X136152438Y-64261904D02*
X136200057Y-64214285D01*
X136200057Y-64214285D02*
X136295295Y-64166666D01*
X136295295Y-64166666D02*
X136438152Y-64166666D01*
X136438152Y-64166666D02*
X136533390Y-64214285D01*
X136533390Y-64214285D02*
X136581009Y-64261904D01*
X136581009Y-64261904D02*
X136628628Y-64357142D01*
X136628628Y-64357142D02*
X136628628Y-64738094D01*
X136104819Y-63833332D02*
X136104819Y-63214285D01*
X136104819Y-63214285D02*
X136485771Y-63547618D01*
X136485771Y-63547618D02*
X136485771Y-63404761D01*
X136485771Y-63404761D02*
X136533390Y-63309523D01*
X136533390Y-63309523D02*
X136581009Y-63261904D01*
X136581009Y-63261904D02*
X136676247Y-63214285D01*
X136676247Y-63214285D02*
X136914342Y-63214285D01*
X136914342Y-63214285D02*
X137009580Y-63261904D01*
X137009580Y-63261904D02*
X137057200Y-63309523D01*
X137057200Y-63309523D02*
X137104819Y-63404761D01*
X137104819Y-63404761D02*
X137104819Y-63690475D01*
X137104819Y-63690475D02*
X137057200Y-63785713D01*
X137057200Y-63785713D02*
X137009580Y-63833332D01*
X156666666Y-114604819D02*
X156333333Y-114128628D01*
X156095238Y-114604819D02*
X156095238Y-113604819D01*
X156095238Y-113604819D02*
X156476190Y-113604819D01*
X156476190Y-113604819D02*
X156571428Y-113652438D01*
X156571428Y-113652438D02*
X156619047Y-113700057D01*
X156619047Y-113700057D02*
X156666666Y-113795295D01*
X156666666Y-113795295D02*
X156666666Y-113938152D01*
X156666666Y-113938152D02*
X156619047Y-114033390D01*
X156619047Y-114033390D02*
X156571428Y-114081009D01*
X156571428Y-114081009D02*
X156476190Y-114128628D01*
X156476190Y-114128628D02*
X156095238Y-114128628D01*
X157095238Y-114081009D02*
X157428571Y-114081009D01*
X157571428Y-114604819D02*
X157095238Y-114604819D01*
X157095238Y-114604819D02*
X157095238Y-113604819D01*
X157095238Y-113604819D02*
X157571428Y-113604819D01*
X158333333Y-114081009D02*
X158000000Y-114081009D01*
X158000000Y-114604819D02*
X158000000Y-113604819D01*
X158000000Y-113604819D02*
X158476190Y-113604819D01*
X159000000Y-113604819D02*
X159000000Y-113842914D01*
X158761905Y-113747676D02*
X159000000Y-113842914D01*
X159000000Y-113842914D02*
X159238095Y-113747676D01*
X158857143Y-114033390D02*
X159000000Y-113842914D01*
X159000000Y-113842914D02*
X159142857Y-114033390D01*
X159761905Y-113604819D02*
X159761905Y-113842914D01*
X159523810Y-113747676D02*
X159761905Y-113842914D01*
X159761905Y-113842914D02*
X160000000Y-113747676D01*
X159619048Y-114033390D02*
X159761905Y-113842914D01*
X159761905Y-113842914D02*
X159904762Y-114033390D01*
X108833333Y-74199580D02*
X108785714Y-74247200D01*
X108785714Y-74247200D02*
X108642857Y-74294819D01*
X108642857Y-74294819D02*
X108547619Y-74294819D01*
X108547619Y-74294819D02*
X108404762Y-74247200D01*
X108404762Y-74247200D02*
X108309524Y-74151961D01*
X108309524Y-74151961D02*
X108261905Y-74056723D01*
X108261905Y-74056723D02*
X108214286Y-73866247D01*
X108214286Y-73866247D02*
X108214286Y-73723390D01*
X108214286Y-73723390D02*
X108261905Y-73532914D01*
X108261905Y-73532914D02*
X108309524Y-73437676D01*
X108309524Y-73437676D02*
X108404762Y-73342438D01*
X108404762Y-73342438D02*
X108547619Y-73294819D01*
X108547619Y-73294819D02*
X108642857Y-73294819D01*
X108642857Y-73294819D02*
X108785714Y-73342438D01*
X108785714Y-73342438D02*
X108833333Y-73390057D01*
X109166667Y-73294819D02*
X109785714Y-73294819D01*
X109785714Y-73294819D02*
X109452381Y-73675771D01*
X109452381Y-73675771D02*
X109595238Y-73675771D01*
X109595238Y-73675771D02*
X109690476Y-73723390D01*
X109690476Y-73723390D02*
X109738095Y-73771009D01*
X109738095Y-73771009D02*
X109785714Y-73866247D01*
X109785714Y-73866247D02*
X109785714Y-74104342D01*
X109785714Y-74104342D02*
X109738095Y-74199580D01*
X109738095Y-74199580D02*
X109690476Y-74247200D01*
X109690476Y-74247200D02*
X109595238Y-74294819D01*
X109595238Y-74294819D02*
X109309524Y-74294819D01*
X109309524Y-74294819D02*
X109214286Y-74247200D01*
X109214286Y-74247200D02*
X109166667Y-74199580D01*
X131833333Y-61679580D02*
X131785714Y-61727200D01*
X131785714Y-61727200D02*
X131642857Y-61774819D01*
X131642857Y-61774819D02*
X131547619Y-61774819D01*
X131547619Y-61774819D02*
X131404762Y-61727200D01*
X131404762Y-61727200D02*
X131309524Y-61631961D01*
X131309524Y-61631961D02*
X131261905Y-61536723D01*
X131261905Y-61536723D02*
X131214286Y-61346247D01*
X131214286Y-61346247D02*
X131214286Y-61203390D01*
X131214286Y-61203390D02*
X131261905Y-61012914D01*
X131261905Y-61012914D02*
X131309524Y-60917676D01*
X131309524Y-60917676D02*
X131404762Y-60822438D01*
X131404762Y-60822438D02*
X131547619Y-60774819D01*
X131547619Y-60774819D02*
X131642857Y-60774819D01*
X131642857Y-60774819D02*
X131785714Y-60822438D01*
X131785714Y-60822438D02*
X131833333Y-60870057D01*
X132690476Y-61108152D02*
X132690476Y-61774819D01*
X132452381Y-60727200D02*
X132214286Y-61441485D01*
X132214286Y-61441485D02*
X132833333Y-61441485D01*
X156666666Y-55604819D02*
X156333333Y-55128628D01*
X156095238Y-55604819D02*
X156095238Y-54604819D01*
X156095238Y-54604819D02*
X156476190Y-54604819D01*
X156476190Y-54604819D02*
X156571428Y-54652438D01*
X156571428Y-54652438D02*
X156619047Y-54700057D01*
X156619047Y-54700057D02*
X156666666Y-54795295D01*
X156666666Y-54795295D02*
X156666666Y-54938152D01*
X156666666Y-54938152D02*
X156619047Y-55033390D01*
X156619047Y-55033390D02*
X156571428Y-55081009D01*
X156571428Y-55081009D02*
X156476190Y-55128628D01*
X156476190Y-55128628D02*
X156095238Y-55128628D01*
X157095238Y-55081009D02*
X157428571Y-55081009D01*
X157571428Y-55604819D02*
X157095238Y-55604819D01*
X157095238Y-55604819D02*
X157095238Y-54604819D01*
X157095238Y-54604819D02*
X157571428Y-54604819D01*
X158333333Y-55081009D02*
X158000000Y-55081009D01*
X158000000Y-55604819D02*
X158000000Y-54604819D01*
X158000000Y-54604819D02*
X158476190Y-54604819D01*
X159000000Y-54604819D02*
X159000000Y-54842914D01*
X158761905Y-54747676D02*
X159000000Y-54842914D01*
X159000000Y-54842914D02*
X159238095Y-54747676D01*
X158857143Y-55033390D02*
X159000000Y-54842914D01*
X159000000Y-54842914D02*
X159142857Y-55033390D01*
X159761905Y-54604819D02*
X159761905Y-54842914D01*
X159523810Y-54747676D02*
X159761905Y-54842914D01*
X159761905Y-54842914D02*
X160000000Y-54747676D01*
X159619048Y-55033390D02*
X159761905Y-54842914D01*
X159761905Y-54842914D02*
X159904762Y-55033390D01*
X145564819Y-100166666D02*
X145564819Y-100642856D01*
X145564819Y-100642856D02*
X144564819Y-100642856D01*
X144660057Y-99880951D02*
X144612438Y-99833332D01*
X144612438Y-99833332D02*
X144564819Y-99738094D01*
X144564819Y-99738094D02*
X144564819Y-99499999D01*
X144564819Y-99499999D02*
X144612438Y-99404761D01*
X144612438Y-99404761D02*
X144660057Y-99357142D01*
X144660057Y-99357142D02*
X144755295Y-99309523D01*
X144755295Y-99309523D02*
X144850533Y-99309523D01*
X144850533Y-99309523D02*
X144993390Y-99357142D01*
X144993390Y-99357142D02*
X145564819Y-99928570D01*
X145564819Y-99928570D02*
X145564819Y-99309523D01*
X116313333Y-56199580D02*
X116265714Y-56247200D01*
X116265714Y-56247200D02*
X116122857Y-56294819D01*
X116122857Y-56294819D02*
X116027619Y-56294819D01*
X116027619Y-56294819D02*
X115884762Y-56247200D01*
X115884762Y-56247200D02*
X115789524Y-56151961D01*
X115789524Y-56151961D02*
X115741905Y-56056723D01*
X115741905Y-56056723D02*
X115694286Y-55866247D01*
X115694286Y-55866247D02*
X115694286Y-55723390D01*
X115694286Y-55723390D02*
X115741905Y-55532914D01*
X115741905Y-55532914D02*
X115789524Y-55437676D01*
X115789524Y-55437676D02*
X115884762Y-55342438D01*
X115884762Y-55342438D02*
X116027619Y-55294819D01*
X116027619Y-55294819D02*
X116122857Y-55294819D01*
X116122857Y-55294819D02*
X116265714Y-55342438D01*
X116265714Y-55342438D02*
X116313333Y-55390057D01*
X116646667Y-55294819D02*
X117313333Y-55294819D01*
X117313333Y-55294819D02*
X116884762Y-56294819D01*
X132353333Y-65199580D02*
X132305714Y-65247200D01*
X132305714Y-65247200D02*
X132162857Y-65294819D01*
X132162857Y-65294819D02*
X132067619Y-65294819D01*
X132067619Y-65294819D02*
X131924762Y-65247200D01*
X131924762Y-65247200D02*
X131829524Y-65151961D01*
X131829524Y-65151961D02*
X131781905Y-65056723D01*
X131781905Y-65056723D02*
X131734286Y-64866247D01*
X131734286Y-64866247D02*
X131734286Y-64723390D01*
X131734286Y-64723390D02*
X131781905Y-64532914D01*
X131781905Y-64532914D02*
X131829524Y-64437676D01*
X131829524Y-64437676D02*
X131924762Y-64342438D01*
X131924762Y-64342438D02*
X132067619Y-64294819D01*
X132067619Y-64294819D02*
X132162857Y-64294819D01*
X132162857Y-64294819D02*
X132305714Y-64342438D01*
X132305714Y-64342438D02*
X132353333Y-64390057D01*
X133258095Y-64294819D02*
X132781905Y-64294819D01*
X132781905Y-64294819D02*
X132734286Y-64771009D01*
X132734286Y-64771009D02*
X132781905Y-64723390D01*
X132781905Y-64723390D02*
X132877143Y-64675771D01*
X132877143Y-64675771D02*
X133115238Y-64675771D01*
X133115238Y-64675771D02*
X133210476Y-64723390D01*
X133210476Y-64723390D02*
X133258095Y-64771009D01*
X133258095Y-64771009D02*
X133305714Y-64866247D01*
X133305714Y-64866247D02*
X133305714Y-65104342D01*
X133305714Y-65104342D02*
X133258095Y-65199580D01*
X133258095Y-65199580D02*
X133210476Y-65247200D01*
X133210476Y-65247200D02*
X133115238Y-65294819D01*
X133115238Y-65294819D02*
X132877143Y-65294819D01*
X132877143Y-65294819D02*
X132781905Y-65247200D01*
X132781905Y-65247200D02*
X132734286Y-65199580D01*
X111659580Y-70166666D02*
X111707200Y-70214285D01*
X111707200Y-70214285D02*
X111754819Y-70357142D01*
X111754819Y-70357142D02*
X111754819Y-70452380D01*
X111754819Y-70452380D02*
X111707200Y-70595237D01*
X111707200Y-70595237D02*
X111611961Y-70690475D01*
X111611961Y-70690475D02*
X111516723Y-70738094D01*
X111516723Y-70738094D02*
X111326247Y-70785713D01*
X111326247Y-70785713D02*
X111183390Y-70785713D01*
X111183390Y-70785713D02*
X110992914Y-70738094D01*
X110992914Y-70738094D02*
X110897676Y-70690475D01*
X110897676Y-70690475D02*
X110802438Y-70595237D01*
X110802438Y-70595237D02*
X110754819Y-70452380D01*
X110754819Y-70452380D02*
X110754819Y-70357142D01*
X110754819Y-70357142D02*
X110802438Y-70214285D01*
X110802438Y-70214285D02*
X110850057Y-70166666D01*
X110850057Y-69785713D02*
X110802438Y-69738094D01*
X110802438Y-69738094D02*
X110754819Y-69642856D01*
X110754819Y-69642856D02*
X110754819Y-69404761D01*
X110754819Y-69404761D02*
X110802438Y-69309523D01*
X110802438Y-69309523D02*
X110850057Y-69261904D01*
X110850057Y-69261904D02*
X110945295Y-69214285D01*
X110945295Y-69214285D02*
X111040533Y-69214285D01*
X111040533Y-69214285D02*
X111183390Y-69261904D01*
X111183390Y-69261904D02*
X111754819Y-69833332D01*
X111754819Y-69833332D02*
X111754819Y-69214285D01*
X107666666Y-114604819D02*
X107333333Y-114128628D01*
X107095238Y-114604819D02*
X107095238Y-113604819D01*
X107095238Y-113604819D02*
X107476190Y-113604819D01*
X107476190Y-113604819D02*
X107571428Y-113652438D01*
X107571428Y-113652438D02*
X107619047Y-113700057D01*
X107619047Y-113700057D02*
X107666666Y-113795295D01*
X107666666Y-113795295D02*
X107666666Y-113938152D01*
X107666666Y-113938152D02*
X107619047Y-114033390D01*
X107619047Y-114033390D02*
X107571428Y-114081009D01*
X107571428Y-114081009D02*
X107476190Y-114128628D01*
X107476190Y-114128628D02*
X107095238Y-114128628D01*
X108095238Y-114081009D02*
X108428571Y-114081009D01*
X108571428Y-114604819D02*
X108095238Y-114604819D01*
X108095238Y-114604819D02*
X108095238Y-113604819D01*
X108095238Y-113604819D02*
X108571428Y-113604819D01*
X109333333Y-114081009D02*
X109000000Y-114081009D01*
X109000000Y-114604819D02*
X109000000Y-113604819D01*
X109000000Y-113604819D02*
X109476190Y-113604819D01*
X110000000Y-113604819D02*
X110000000Y-113842914D01*
X109761905Y-113747676D02*
X110000000Y-113842914D01*
X110000000Y-113842914D02*
X110238095Y-113747676D01*
X109857143Y-114033390D02*
X110000000Y-113842914D01*
X110000000Y-113842914D02*
X110142857Y-114033390D01*
X110761905Y-113604819D02*
X110761905Y-113842914D01*
X110523810Y-113747676D02*
X110761905Y-113842914D01*
X110761905Y-113842914D02*
X111000000Y-113747676D01*
X110619048Y-114033390D02*
X110761905Y-113842914D01*
X110761905Y-113842914D02*
X110904762Y-114033390D01*
X111659580Y-64166666D02*
X111707200Y-64214285D01*
X111707200Y-64214285D02*
X111754819Y-64357142D01*
X111754819Y-64357142D02*
X111754819Y-64452380D01*
X111754819Y-64452380D02*
X111707200Y-64595237D01*
X111707200Y-64595237D02*
X111611961Y-64690475D01*
X111611961Y-64690475D02*
X111516723Y-64738094D01*
X111516723Y-64738094D02*
X111326247Y-64785713D01*
X111326247Y-64785713D02*
X111183390Y-64785713D01*
X111183390Y-64785713D02*
X110992914Y-64738094D01*
X110992914Y-64738094D02*
X110897676Y-64690475D01*
X110897676Y-64690475D02*
X110802438Y-64595237D01*
X110802438Y-64595237D02*
X110754819Y-64452380D01*
X110754819Y-64452380D02*
X110754819Y-64357142D01*
X110754819Y-64357142D02*
X110802438Y-64214285D01*
X110802438Y-64214285D02*
X110850057Y-64166666D01*
X111754819Y-63214285D02*
X111754819Y-63785713D01*
X111754819Y-63499999D02*
X110754819Y-63499999D01*
X110754819Y-63499999D02*
X110897676Y-63595237D01*
X110897676Y-63595237D02*
X110992914Y-63690475D01*
X110992914Y-63690475D02*
X111040533Y-63785713D01*
X131833333Y-57174819D02*
X131357143Y-57174819D01*
X131357143Y-57174819D02*
X131357143Y-56174819D01*
X132690476Y-57174819D02*
X132119048Y-57174819D01*
X132404762Y-57174819D02*
X132404762Y-56174819D01*
X132404762Y-56174819D02*
X132309524Y-56317676D01*
X132309524Y-56317676D02*
X132214286Y-56412914D01*
X132214286Y-56412914D02*
X132119048Y-56460533D01*
X114353333Y-69199580D02*
X114305714Y-69247200D01*
X114305714Y-69247200D02*
X114162857Y-69294819D01*
X114162857Y-69294819D02*
X114067619Y-69294819D01*
X114067619Y-69294819D02*
X113924762Y-69247200D01*
X113924762Y-69247200D02*
X113829524Y-69151961D01*
X113829524Y-69151961D02*
X113781905Y-69056723D01*
X113781905Y-69056723D02*
X113734286Y-68866247D01*
X113734286Y-68866247D02*
X113734286Y-68723390D01*
X113734286Y-68723390D02*
X113781905Y-68532914D01*
X113781905Y-68532914D02*
X113829524Y-68437676D01*
X113829524Y-68437676D02*
X113924762Y-68342438D01*
X113924762Y-68342438D02*
X114067619Y-68294819D01*
X114067619Y-68294819D02*
X114162857Y-68294819D01*
X114162857Y-68294819D02*
X114305714Y-68342438D01*
X114305714Y-68342438D02*
X114353333Y-68390057D01*
X115210476Y-68294819D02*
X115020000Y-68294819D01*
X115020000Y-68294819D02*
X114924762Y-68342438D01*
X114924762Y-68342438D02*
X114877143Y-68390057D01*
X114877143Y-68390057D02*
X114781905Y-68532914D01*
X114781905Y-68532914D02*
X114734286Y-68723390D01*
X114734286Y-68723390D02*
X114734286Y-69104342D01*
X114734286Y-69104342D02*
X114781905Y-69199580D01*
X114781905Y-69199580D02*
X114829524Y-69247200D01*
X114829524Y-69247200D02*
X114924762Y-69294819D01*
X114924762Y-69294819D02*
X115115238Y-69294819D01*
X115115238Y-69294819D02*
X115210476Y-69247200D01*
X115210476Y-69247200D02*
X115258095Y-69199580D01*
X115258095Y-69199580D02*
X115305714Y-69104342D01*
X115305714Y-69104342D02*
X115305714Y-68866247D01*
X115305714Y-68866247D02*
X115258095Y-68771009D01*
X115258095Y-68771009D02*
X115210476Y-68723390D01*
X115210476Y-68723390D02*
X115115238Y-68675771D01*
X115115238Y-68675771D02*
X114924762Y-68675771D01*
X114924762Y-68675771D02*
X114829524Y-68723390D01*
X114829524Y-68723390D02*
X114781905Y-68771009D01*
X114781905Y-68771009D02*
X114734286Y-68866247D01*
X127358333Y-76209580D02*
X127310714Y-76257200D01*
X127310714Y-76257200D02*
X127167857Y-76304819D01*
X127167857Y-76304819D02*
X127072619Y-76304819D01*
X127072619Y-76304819D02*
X126929762Y-76257200D01*
X126929762Y-76257200D02*
X126834524Y-76161961D01*
X126834524Y-76161961D02*
X126786905Y-76066723D01*
X126786905Y-76066723D02*
X126739286Y-75876247D01*
X126739286Y-75876247D02*
X126739286Y-75733390D01*
X126739286Y-75733390D02*
X126786905Y-75542914D01*
X126786905Y-75542914D02*
X126834524Y-75447676D01*
X126834524Y-75447676D02*
X126929762Y-75352438D01*
X126929762Y-75352438D02*
X127072619Y-75304819D01*
X127072619Y-75304819D02*
X127167857Y-75304819D01*
X127167857Y-75304819D02*
X127310714Y-75352438D01*
X127310714Y-75352438D02*
X127358333Y-75400057D01*
X127834524Y-76304819D02*
X128025000Y-76304819D01*
X128025000Y-76304819D02*
X128120238Y-76257200D01*
X128120238Y-76257200D02*
X128167857Y-76209580D01*
X128167857Y-76209580D02*
X128263095Y-76066723D01*
X128263095Y-76066723D02*
X128310714Y-75876247D01*
X128310714Y-75876247D02*
X128310714Y-75495295D01*
X128310714Y-75495295D02*
X128263095Y-75400057D01*
X128263095Y-75400057D02*
X128215476Y-75352438D01*
X128215476Y-75352438D02*
X128120238Y-75304819D01*
X128120238Y-75304819D02*
X127929762Y-75304819D01*
X127929762Y-75304819D02*
X127834524Y-75352438D01*
X127834524Y-75352438D02*
X127786905Y-75400057D01*
X127786905Y-75400057D02*
X127739286Y-75495295D01*
X127739286Y-75495295D02*
X127739286Y-75733390D01*
X127739286Y-75733390D02*
X127786905Y-75828628D01*
X127786905Y-75828628D02*
X127834524Y-75876247D01*
X127834524Y-75876247D02*
X127929762Y-75923866D01*
X127929762Y-75923866D02*
X128120238Y-75923866D01*
X128120238Y-75923866D02*
X128215476Y-75876247D01*
X128215476Y-75876247D02*
X128263095Y-75828628D01*
X128263095Y-75828628D02*
X128310714Y-75733390D01*
X108863095Y-107907200D02*
X109005952Y-107954819D01*
X109005952Y-107954819D02*
X109244047Y-107954819D01*
X109244047Y-107954819D02*
X109339285Y-107907200D01*
X109339285Y-107907200D02*
X109386904Y-107859580D01*
X109386904Y-107859580D02*
X109434523Y-107764342D01*
X109434523Y-107764342D02*
X109434523Y-107669104D01*
X109434523Y-107669104D02*
X109386904Y-107573866D01*
X109386904Y-107573866D02*
X109339285Y-107526247D01*
X109339285Y-107526247D02*
X109244047Y-107478628D01*
X109244047Y-107478628D02*
X109053571Y-107431009D01*
X109053571Y-107431009D02*
X108958333Y-107383390D01*
X108958333Y-107383390D02*
X108910714Y-107335771D01*
X108910714Y-107335771D02*
X108863095Y-107240533D01*
X108863095Y-107240533D02*
X108863095Y-107145295D01*
X108863095Y-107145295D02*
X108910714Y-107050057D01*
X108910714Y-107050057D02*
X108958333Y-107002438D01*
X108958333Y-107002438D02*
X109053571Y-106954819D01*
X109053571Y-106954819D02*
X109291666Y-106954819D01*
X109291666Y-106954819D02*
X109434523Y-107002438D01*
X109815476Y-107050057D02*
X109863095Y-107002438D01*
X109863095Y-107002438D02*
X109958333Y-106954819D01*
X109958333Y-106954819D02*
X110196428Y-106954819D01*
X110196428Y-106954819D02*
X110291666Y-107002438D01*
X110291666Y-107002438D02*
X110339285Y-107050057D01*
X110339285Y-107050057D02*
X110386904Y-107145295D01*
X110386904Y-107145295D02*
X110386904Y-107240533D01*
X110386904Y-107240533D02*
X110339285Y-107383390D01*
X110339285Y-107383390D02*
X109767857Y-107954819D01*
X109767857Y-107954819D02*
X110386904Y-107954819D01*
X147357142Y-75159580D02*
X147309523Y-75207200D01*
X147309523Y-75207200D02*
X147166666Y-75254819D01*
X147166666Y-75254819D02*
X147071428Y-75254819D01*
X147071428Y-75254819D02*
X146928571Y-75207200D01*
X146928571Y-75207200D02*
X146833333Y-75111961D01*
X146833333Y-75111961D02*
X146785714Y-75016723D01*
X146785714Y-75016723D02*
X146738095Y-74826247D01*
X146738095Y-74826247D02*
X146738095Y-74683390D01*
X146738095Y-74683390D02*
X146785714Y-74492914D01*
X146785714Y-74492914D02*
X146833333Y-74397676D01*
X146833333Y-74397676D02*
X146928571Y-74302438D01*
X146928571Y-74302438D02*
X147071428Y-74254819D01*
X147071428Y-74254819D02*
X147166666Y-74254819D01*
X147166666Y-74254819D02*
X147309523Y-74302438D01*
X147309523Y-74302438D02*
X147357142Y-74350057D01*
X148309523Y-75254819D02*
X147738095Y-75254819D01*
X148023809Y-75254819D02*
X148023809Y-74254819D01*
X148023809Y-74254819D02*
X147928571Y-74397676D01*
X147928571Y-74397676D02*
X147833333Y-74492914D01*
X147833333Y-74492914D02*
X147738095Y-74540533D01*
X149261904Y-75254819D02*
X148690476Y-75254819D01*
X148976190Y-75254819D02*
X148976190Y-74254819D01*
X148976190Y-74254819D02*
X148880952Y-74397676D01*
X148880952Y-74397676D02*
X148785714Y-74492914D01*
X148785714Y-74492914D02*
X148690476Y-74540533D01*
X106101009Y-100333333D02*
X106101009Y-100666666D01*
X106624819Y-100666666D02*
X105624819Y-100666666D01*
X105624819Y-100666666D02*
X105624819Y-100190476D01*
X106624819Y-99285714D02*
X106624819Y-99857142D01*
X106624819Y-99571428D02*
X105624819Y-99571428D01*
X105624819Y-99571428D02*
X105767676Y-99666666D01*
X105767676Y-99666666D02*
X105862914Y-99761904D01*
X105862914Y-99761904D02*
X105910533Y-99857142D01*
X116357142Y-75159580D02*
X116309523Y-75207200D01*
X116309523Y-75207200D02*
X116166666Y-75254819D01*
X116166666Y-75254819D02*
X116071428Y-75254819D01*
X116071428Y-75254819D02*
X115928571Y-75207200D01*
X115928571Y-75207200D02*
X115833333Y-75111961D01*
X115833333Y-75111961D02*
X115785714Y-75016723D01*
X115785714Y-75016723D02*
X115738095Y-74826247D01*
X115738095Y-74826247D02*
X115738095Y-74683390D01*
X115738095Y-74683390D02*
X115785714Y-74492914D01*
X115785714Y-74492914D02*
X115833333Y-74397676D01*
X115833333Y-74397676D02*
X115928571Y-74302438D01*
X115928571Y-74302438D02*
X116071428Y-74254819D01*
X116071428Y-74254819D02*
X116166666Y-74254819D01*
X116166666Y-74254819D02*
X116309523Y-74302438D01*
X116309523Y-74302438D02*
X116357142Y-74350057D01*
X117309523Y-75254819D02*
X116738095Y-75254819D01*
X117023809Y-75254819D02*
X117023809Y-74254819D01*
X117023809Y-74254819D02*
X116928571Y-74397676D01*
X116928571Y-74397676D02*
X116833333Y-74492914D01*
X116833333Y-74492914D02*
X116738095Y-74540533D01*
X117928571Y-74254819D02*
X118023809Y-74254819D01*
X118023809Y-74254819D02*
X118119047Y-74302438D01*
X118119047Y-74302438D02*
X118166666Y-74350057D01*
X118166666Y-74350057D02*
X118214285Y-74445295D01*
X118214285Y-74445295D02*
X118261904Y-74635771D01*
X118261904Y-74635771D02*
X118261904Y-74873866D01*
X118261904Y-74873866D02*
X118214285Y-75064342D01*
X118214285Y-75064342D02*
X118166666Y-75159580D01*
X118166666Y-75159580D02*
X118119047Y-75207200D01*
X118119047Y-75207200D02*
X118023809Y-75254819D01*
X118023809Y-75254819D02*
X117928571Y-75254819D01*
X117928571Y-75254819D02*
X117833333Y-75207200D01*
X117833333Y-75207200D02*
X117785714Y-75159580D01*
X117785714Y-75159580D02*
X117738095Y-75064342D01*
X117738095Y-75064342D02*
X117690476Y-74873866D01*
X117690476Y-74873866D02*
X117690476Y-74635771D01*
X117690476Y-74635771D02*
X117738095Y-74445295D01*
X117738095Y-74445295D02*
X117785714Y-74350057D01*
X117785714Y-74350057D02*
X117833333Y-74302438D01*
X117833333Y-74302438D02*
X117928571Y-74254819D01*
X114920833Y-61804819D02*
X114587500Y-61328628D01*
X114349405Y-61804819D02*
X114349405Y-60804819D01*
X114349405Y-60804819D02*
X114730357Y-60804819D01*
X114730357Y-60804819D02*
X114825595Y-60852438D01*
X114825595Y-60852438D02*
X114873214Y-60900057D01*
X114873214Y-60900057D02*
X114920833Y-60995295D01*
X114920833Y-60995295D02*
X114920833Y-61138152D01*
X114920833Y-61138152D02*
X114873214Y-61233390D01*
X114873214Y-61233390D02*
X114825595Y-61281009D01*
X114825595Y-61281009D02*
X114730357Y-61328628D01*
X114730357Y-61328628D02*
X114349405Y-61328628D01*
X115873214Y-61804819D02*
X115301786Y-61804819D01*
X115587500Y-61804819D02*
X115587500Y-60804819D01*
X115587500Y-60804819D02*
X115492262Y-60947676D01*
X115492262Y-60947676D02*
X115397024Y-61042914D01*
X115397024Y-61042914D02*
X115301786Y-61090533D01*
D11*
%TO.C,U1*%
X122225000Y-88565000D02*
X121885000Y-88095000D01*
X122565000Y-88095000D01*
X122225000Y-88565000D01*
G36*
X122225000Y-88565000D02*
G01*
X121885000Y-88095000D01*
X122565000Y-88095000D01*
X122225000Y-88565000D01*
G37*
X126415000Y-97975000D02*
X125050000Y-97975000D01*
X126415000Y-87575000D02*
X125050000Y-87575000D01*
X125050000Y-97975000D02*
X125050000Y-97025000D01*
X125050000Y-87575000D02*
X125050000Y-88525000D01*
%TO.C,D1*%
X137490000Y-62250000D02*
X146000000Y-62250000D01*
X137490000Y-62250000D02*
X137490000Y-55750000D01*
X137490000Y-55750000D02*
X146000000Y-55750000D01*
%TO.C,J2*%
X159380000Y-65270000D02*
X159380000Y-70460000D01*
X156620000Y-70460000D02*
X159380000Y-70460000D01*
X156620000Y-65270000D02*
X159380000Y-65270000D01*
X156620000Y-65270000D02*
X156620000Y-70460000D01*
X156620000Y-64000000D02*
X156620000Y-62620000D01*
X156620000Y-62620000D02*
X158000000Y-62620000D01*
%TO.C,J3*%
X159380000Y-75730000D02*
X159380000Y-80920000D01*
X156620000Y-80920000D02*
X159380000Y-80920000D01*
X156620000Y-75730000D02*
X159380000Y-75730000D01*
X156620000Y-75730000D02*
X156620000Y-80920000D01*
X156620000Y-74460000D02*
X156620000Y-73080000D01*
X156620000Y-73080000D02*
X158000000Y-73080000D01*
%TO.C,J4*%
X159380000Y-85730000D02*
X159380000Y-90920000D01*
X156620000Y-90920000D02*
X159380000Y-90920000D01*
X156620000Y-85730000D02*
X159380000Y-85730000D01*
X156620000Y-85730000D02*
X156620000Y-90920000D01*
X156620000Y-84460000D02*
X156620000Y-83080000D01*
X156620000Y-83080000D02*
X158000000Y-83080000D01*
%TO.C,J1*%
X130090000Y-114600000D02*
X115390000Y-114600000D01*
X130090000Y-105400000D02*
X130090000Y-114600000D01*
X121290000Y-105400000D02*
X130090000Y-105400000D01*
X116240000Y-114800000D02*
X115190000Y-114800000D01*
X115390000Y-114600000D02*
X115390000Y-112000000D01*
X115390000Y-108100000D02*
X115390000Y-105400000D01*
X115390000Y-105400000D02*
X117290000Y-105400000D01*
X115190000Y-113750000D02*
X115190000Y-114800000D01*
%TO.C,D4*%
X114360000Y-97000000D02*
X114360000Y-95000000D01*
X114360000Y-97000000D02*
X110350000Y-97000000D01*
X114360000Y-95000000D02*
X110350000Y-95000000D01*
%TO.C,R5*%
X121336359Y-73620000D02*
X121643641Y-73620000D01*
X121336359Y-74380000D02*
X121643641Y-74380000D01*
%TO.C,C8*%
X126288748Y-68090000D02*
X127711252Y-68090000D01*
X126288748Y-69910000D02*
X127711252Y-69910000D01*
%TO.C,R4*%
X121772936Y-70735000D02*
X122227064Y-70735000D01*
X121772936Y-69265000D02*
X122227064Y-69265000D01*
%TO.C,R2*%
X113860436Y-66735000D02*
X114314564Y-66735000D01*
X113860436Y-65265000D02*
X114314564Y-65265000D01*
%TO.C,U2*%
X121415000Y-59075000D02*
X125535000Y-59075000D01*
X121415000Y-59170000D02*
X121415000Y-59075000D01*
X121415000Y-64195000D02*
X121415000Y-64100000D01*
X125535000Y-59075000D02*
X125535000Y-59170000D01*
X125535000Y-64100000D02*
X125535000Y-64195000D01*
X125535000Y-64195000D02*
X121415000Y-64195000D01*
X120875000Y-59165000D02*
X120635000Y-58835000D01*
X121115000Y-58835000D01*
X120875000Y-59165000D01*
G36*
X120875000Y-59165000D02*
G01*
X120635000Y-58835000D01*
X121115000Y-58835000D01*
X120875000Y-59165000D01*
G37*
%TO.C,S1*%
X109640000Y-110390000D02*
X110265000Y-110390000D01*
X109640000Y-111610000D02*
X109640000Y-110390000D01*
X110265000Y-111610000D02*
X109640000Y-111610000D01*
X111735000Y-111000000D02*
X111735000Y-111735000D01*
X111735000Y-111735000D02*
X111000000Y-111735000D01*
X107640000Y-110740000D02*
X109640000Y-110740000D01*
X109640000Y-111260000D01*
X107640000Y-111260000D01*
X107640000Y-110740000D01*
G36*
X107640000Y-110740000D02*
G01*
X109640000Y-110740000D01*
X109640000Y-111260000D01*
X107640000Y-111260000D01*
X107640000Y-110740000D01*
G37*
%TO.C,D2*%
X130850000Y-83660000D02*
X130850000Y-77850000D01*
X130850000Y-83660000D02*
X135150000Y-83660000D01*
X135150000Y-83660000D02*
X135150000Y-77850000D01*
%TO.C,R3*%
X135735000Y-63772936D02*
X135735000Y-64227064D01*
X134265000Y-63772936D02*
X134265000Y-64227064D01*
%TO.C,C3*%
X108892164Y-74640000D02*
X109107836Y-74640000D01*
X108892164Y-75360000D02*
X109107836Y-75360000D01*
%TO.C,C4*%
X131738748Y-62265000D02*
X132261252Y-62265000D01*
X131738748Y-63735000D02*
X132261252Y-63735000D01*
%TO.C,L2*%
X147700000Y-93700000D02*
X150700000Y-93700000D01*
X147700000Y-106300000D02*
X147700000Y-93700000D01*
X150700000Y-106300000D02*
X147700000Y-106300000D01*
X157300000Y-93700000D02*
X160300000Y-93700000D01*
X160300000Y-93700000D02*
X160300000Y-106300000D01*
X160300000Y-106300000D02*
X157300000Y-106300000D01*
%TO.C,C7*%
X116372164Y-56640000D02*
X116587836Y-56640000D01*
X116372164Y-57360000D02*
X116587836Y-57360000D01*
%TO.C,C5*%
X132412164Y-65640000D02*
X132627836Y-65640000D01*
X132412164Y-66360000D02*
X132627836Y-66360000D01*
%TO.C,C2*%
X107640000Y-69288748D02*
X107640000Y-70711252D01*
X110360000Y-69288748D02*
X110360000Y-70711252D01*
%TO.C,C1*%
X107640000Y-63288748D02*
X107640000Y-64711252D01*
X110360000Y-63288748D02*
X110360000Y-64711252D01*
%TO.C,L1*%
X131397936Y-57640000D02*
X132602064Y-57640000D01*
X131397936Y-60360000D02*
X132602064Y-60360000D01*
%TO.C,C6*%
X114412164Y-69640000D02*
X114627836Y-69640000D01*
X114412164Y-70360000D02*
X114627836Y-70360000D01*
%TO.C,C9*%
X128236252Y-73090000D02*
X126813748Y-73090000D01*
X128236252Y-74910000D02*
X126813748Y-74910000D01*
%TO.C,S2*%
X109640000Y-105390000D02*
X110265000Y-105390000D01*
X109640000Y-106610000D02*
X109640000Y-105390000D01*
X110265000Y-106610000D02*
X109640000Y-106610000D01*
X111735000Y-106000000D02*
X111735000Y-106735000D01*
X111735000Y-106735000D02*
X111000000Y-106735000D01*
X107640000Y-105740000D02*
X109640000Y-105740000D01*
X109640000Y-106260000D01*
X107640000Y-106260000D01*
X107640000Y-105740000D01*
G36*
X107640000Y-105740000D02*
G01*
X109640000Y-105740000D01*
X109640000Y-106260000D01*
X107640000Y-106260000D01*
X107640000Y-105740000D01*
G37*
%TO.C,C11*%
X142500000Y-77490000D02*
X143500000Y-77490000D01*
X143000000Y-76990000D02*
X143000000Y-77990000D01*
X143740000Y-76804437D02*
X143740000Y-78490000D01*
X143740000Y-76804437D02*
X144804437Y-75740000D01*
X143740000Y-83195563D02*
X143740000Y-81510000D01*
X143740000Y-83195563D02*
X144804437Y-84260000D01*
X144804437Y-75740000D02*
X152260000Y-75740000D01*
X144804437Y-84260000D02*
X152260000Y-84260000D01*
X152260000Y-75740000D02*
X152260000Y-78490000D01*
X152260000Y-84260000D02*
X152260000Y-81510000D01*
%TO.C,F1*%
X107090000Y-100727064D02*
X107090000Y-99272936D01*
X108910000Y-100727064D02*
X108910000Y-99272936D01*
%TO.C,C10*%
X110250000Y-78240000D02*
X111500000Y-78240000D01*
X110875000Y-77615000D02*
X110875000Y-78865000D01*
X111740000Y-76804437D02*
X111740000Y-79490000D01*
X111740000Y-76804437D02*
X112804437Y-75740000D01*
X111740000Y-85195563D02*
X111740000Y-82510000D01*
X111740000Y-85195563D02*
X112804437Y-86260000D01*
X112804437Y-75740000D02*
X122260000Y-75740000D01*
X112804437Y-86260000D02*
X122260000Y-86260000D01*
X122260000Y-75740000D02*
X122260000Y-79490000D01*
X122260000Y-86260000D02*
X122260000Y-82510000D01*
%TO.C,R1*%
X114860436Y-63735000D02*
X115314564Y-63735000D01*
X114860436Y-62265000D02*
X115314564Y-62265000D01*
%TD*%
M02*
